<svg width="29" height="29" viewBox="0 0 29 29" fill="none" xmlns="http://www.w3.org/2000/svg">
<rect width="29" height="29" rx="7" fill="#D9D9D9" fill-opacity="0.5"/>
<path d="M8.125 10.2501L10.25 7.41675H18.75L20.875 10.2501M8.125 10.2501V20.1667C8.125 20.5425 8.27426 20.9028 8.53993 21.1685C8.80561 21.4342 9.16594 21.5834 9.54167 21.5834H19.4583C19.8341 21.5834 20.1944 21.4342 20.4601 21.1685C20.7257 20.9028 20.875 20.5425 20.875 20.1667V10.2501M8.125 10.2501H20.875M17.3333 13.0834C17.3333 13.8349 17.0348 14.5555 16.5035 15.0869C15.9721 15.6182 15.2514 15.9167 14.5 15.9167C13.7486 15.9167 13.0279 15.6182 12.4965 15.0869C11.9652 14.5555 11.6667 13.8349 11.6667 13.0834" stroke="#444545" stroke-linecap="round" stroke-linejoin="round"/>
</svg>
