<svg width="30" height="30" viewBox="0 0 30 30" fill="none" xmlns="http://www.w3.org/2000/svg">
<path d="M19.5 12.375C19.5 12.7728 19.342 13.1544 19.0607 13.4357C18.7794 13.717 18.3978 13.875 18 13.875C17.6022 13.875 17.2206 13.717 16.9393 13.4357C16.658 13.1544 16.5 12.7728 16.5 12.375C16.5 11.9772 16.658 11.5956 16.9393 11.3143C17.2206 11.033 17.6022 10.875 18 10.875C18.3978 10.875 18.7794 11.033 19.0607 11.3143C19.342 11.5956 19.5 11.9772 19.5 12.375Z" fill="#9FA9B3"/>
<path d="M20.625 17.25C21.0228 17.25 21.4044 17.092 21.6857 16.8107C21.967 16.5294 22.125 16.1478 22.125 15.75C22.125 15.3522 21.967 14.9706 21.6857 14.6893C21.4044 14.408 21.0228 14.25 20.625 14.25C20.2272 14.25 19.8456 14.408 19.5643 14.6893C19.283 14.9706 19.125 15.3522 19.125 15.75C19.125 16.1478 19.283 16.5294 19.5643 16.8107C19.8456 17.092 20.2272 17.25 20.625 17.25Z" fill="#9FA9B3"/>
<path d="M10.875 10.875C11.1734 10.875 11.4595 10.9935 11.6705 11.2045C11.8815 11.4155 12 11.7016 12 12V12.75H12.75C13.0484 12.75 13.3345 12.8685 13.5455 13.0795C13.7565 13.2905 13.875 13.5766 13.875 13.875C13.875 14.1734 13.7565 14.4595 13.5455 14.6705C13.3345 14.8815 13.0484 15 12.75 15H12V15.75C12 16.0484 11.8815 16.3345 11.6705 16.5455C11.4595 16.7565 11.1734 16.875 10.875 16.875C10.5766 16.875 10.2905 16.7565 10.0795 16.5455C9.86853 16.3345 9.75 16.0484 9.75 15.75V15H9C8.70163 15 8.41548 14.8815 8.2045 14.6705C7.99353 14.4595 7.875 14.1734 7.875 13.875C7.875 13.5766 7.99353 13.2905 8.2045 13.0795C8.41548 12.8685 8.70163 12.75 9 12.75H9.75V12C9.75 11.7016 9.86853 11.4155 10.0795 11.2045C10.2905 10.9935 10.5766 10.875 10.875 10.875Z" fill="#9FA9B3"/>
<path fill-rule="evenodd" clip-rule="evenodd" d="M18 5.625C16.965 5.625 16.125 6.465 16.125 7.5H18.375C20.2647 7.5 22.0769 8.25067 23.4131 9.58686C24.7493 10.9231 25.5 12.7353 25.5 14.625V19.6395C25.4995 20.6832 25.1246 21.6922 24.4435 22.4831C23.7624 23.2739 22.8202 23.7942 21.788 23.9495C20.7559 24.1047 19.7023 23.8845 18.8187 23.329C17.935 22.7735 17.28 21.9194 16.9725 20.922L16.4745 19.3065C16.4587 19.254 16.4264 19.2079 16.3823 19.1752C16.3383 19.1426 16.2849 19.1249 16.23 19.125H13.77C13.7153 19.1248 13.6621 19.1422 13.618 19.1746C13.574 19.2071 13.5416 19.2528 13.5255 19.305L13.0275 20.922C12.72 21.9194 12.065 22.7735 11.1813 23.329C10.2977 23.8845 9.24413 24.1047 8.21199 23.9495C7.17985 23.7942 6.23763 23.2739 5.55649 22.4831C4.87535 21.6922 4.50049 20.6832 4.5 19.6395V14.625C4.5 12.7353 5.25067 10.9231 6.58686 9.58686C7.92306 8.25067 9.73533 7.5 11.625 7.5H13.875C13.875 6.40598 14.3096 5.35677 15.0832 4.58318C15.8568 3.8096 16.906 3.375 18 3.375V5.625ZM11.625 9.75C10.3321 9.75 9.09209 10.2636 8.17785 11.1779C7.26361 12.0921 6.75 13.3321 6.75 14.625V19.6395C6.74966 20.1451 6.93083 20.634 7.26054 21.0173C7.59025 21.4005 8.04659 21.6527 8.54654 21.7279C9.04649 21.8031 9.55683 21.6964 9.98471 21.4271C10.4126 21.1578 10.7296 20.7438 10.878 20.2605L11.3745 18.6435C11.5321 18.1312 11.8498 17.683 12.281 17.3647C12.7121 17.0464 13.2341 16.8747 13.77 16.875H16.23C16.7661 16.8748 17.2882 17.0467 17.7194 17.3653C18.1506 17.6839 18.4682 18.1325 18.6255 18.645L19.122 20.2605C19.2704 20.7438 19.5874 21.1578 20.0153 21.4271C20.4432 21.6964 20.9535 21.8031 21.4535 21.7279C21.9534 21.6527 22.4098 21.4005 22.7395 21.0173C23.0692 20.634 23.2503 20.1451 23.25 19.6395V14.625C23.25 13.3321 22.7364 12.0921 21.8221 11.1779C20.9079 10.2636 19.6679 9.75 18.375 9.75H11.625Z" fill="#9FA9B3"/>
</svg>
