<svg width="127" height="136" viewBox="0 0 127 136" fill="none" xmlns="http://www.w3.org/2000/svg">
<path d="M1 134.5V30L25 1L63 39L40 67L29 57V97H38.5L1 134.5Z" fill="#8EACCD" stroke="#8EACCD" stroke-linecap="round"/>
<g filter="url(#filter0_d_202_902)">
<path d="M95 6L44 68.5H68V95H95V6Z" fill="#8EACCD"/>
<path d="M95 6L44 68.5H68V95H95V6Z" stroke="#8EACCD" stroke-linecap="round"/>
</g>
<path d="M47.7969 107.636H51.9744L54.848 114.639H54.9929L57.8665 107.636H62.044V120H58.7599V112.852H58.6634L55.9105 119.903H53.9304L51.1776 112.804H51.081V120H47.7969V107.636ZM68.1504 120.169C67.1442 120.169 66.283 119.97 65.5666 119.571C64.8502 119.169 64.3008 118.609 63.9185 117.893C63.5362 117.173 63.345 116.338 63.345 115.388C63.345 114.438 63.5362 113.605 63.9185 112.888C64.3008 112.168 64.8502 111.609 65.5666 111.21C66.283 110.808 67.1442 110.607 68.1504 110.607C69.1565 110.607 70.0178 110.808 70.7342 111.21C71.4506 111.609 71.9999 112.168 72.3823 112.888C72.7646 113.605 72.9558 114.438 72.9558 115.388C72.9558 116.338 72.7646 117.173 72.3823 117.893C71.9999 118.609 71.4506 119.169 70.7342 119.571C70.0178 119.97 69.1565 120.169 68.1504 120.169ZM68.1745 117.706C68.4563 117.706 68.6998 117.611 68.905 117.422C69.1103 117.233 69.2692 116.963 69.3819 116.613C69.4946 116.263 69.551 115.847 69.551 115.364C69.551 114.877 69.4946 114.46 69.3819 114.114C69.2692 113.764 69.1103 113.494 68.905 113.305C68.6998 113.116 68.4563 113.021 68.1745 113.021C67.8767 113.021 67.6212 113.116 67.4078 113.305C67.1945 113.494 67.0315 113.764 66.9189 114.114C66.8062 114.46 66.7498 114.877 66.7498 115.364C66.7498 115.847 66.8062 116.263 66.9189 116.613C67.0315 116.963 67.1945 117.233 67.4078 117.422C67.6212 117.611 67.8767 117.706 68.1745 117.706ZM77.6404 114.784V120H74.3081V110.727H77.4714V112.49H77.568C77.7692 111.902 78.1234 111.442 78.6305 111.108C79.1416 110.774 79.7373 110.607 80.4174 110.607C81.0734 110.607 81.6429 110.757 82.1259 111.059C82.6129 111.357 82.9892 111.768 83.2548 112.291C83.5244 112.814 83.6573 113.412 83.6532 114.084V120H80.3208V114.784C80.3249 114.325 80.2082 113.965 79.9707 113.703C79.7373 113.442 79.4113 113.311 78.9927 113.311C78.719 113.311 78.4796 113.371 78.2743 113.492C78.0731 113.609 77.9181 113.778 77.8095 113.999C77.7008 114.217 77.6445 114.478 77.6404 114.784ZM89.7415 120.169C88.7514 120.169 87.8982 119.98 87.1818 119.602C86.4695 119.219 85.9201 118.672 85.5337 117.96C85.1514 117.243 84.9602 116.386 84.9602 115.388C84.9602 114.43 85.1534 113.593 85.5398 112.876C85.9261 112.16 86.4715 111.603 87.1758 111.204C87.8801 110.806 88.7112 110.607 89.669 110.607C90.3693 110.607 91.0032 110.715 91.5707 110.933C92.1381 111.15 92.6231 111.466 93.0256 111.88C93.428 112.291 93.7379 112.79 93.9553 113.377C94.1726 113.965 94.2812 114.627 94.2812 115.364V116.136H85.9986V114.301H91.2145C91.2105 114.036 91.142 113.802 91.0092 113.601C90.8804 113.396 90.7054 113.237 90.484 113.124C90.2667 113.007 90.0192 112.949 89.7415 112.949C89.4718 112.949 89.2243 113.007 88.9989 113.124C88.7736 113.237 88.5924 113.394 88.4556 113.595C88.3228 113.796 88.2524 114.031 88.2443 114.301V116.281C88.2443 116.579 88.3067 116.845 88.4315 117.078C88.5562 117.312 88.7353 117.495 88.9688 117.627C89.2022 117.76 89.4839 117.827 89.8139 117.827C90.0433 117.827 90.2526 117.795 90.4418 117.73C90.6349 117.666 90.8 117.573 90.9368 117.452C91.0736 117.328 91.1742 117.179 91.2386 117.006H94.2812C94.1766 117.65 93.9291 118.209 93.5387 118.684C93.1483 119.155 92.6312 119.521 91.9872 119.783C91.3473 120.04 90.5987 120.169 89.7415 120.169ZM97.4371 123.477C97.0547 123.477 96.6905 123.447 96.3444 123.387C95.9983 123.33 95.6944 123.252 95.4328 123.151L96.1572 120.785C96.4309 120.881 96.6804 120.944 96.9058 120.972C97.1352 121 97.3304 120.984 97.4914 120.924C97.6564 120.863 97.7751 120.749 97.8476 120.58L97.92 120.411L94.6601 110.727H98.1373L99.6345 117.151H99.7311L101.252 110.727H104.754L101.373 120.773C101.204 121.284 100.959 121.743 100.637 122.149C100.319 122.56 99.9001 122.884 99.3809 123.121C98.8618 123.359 98.2138 123.477 97.4371 123.477ZM105.653 120V107.636H114.347V110.341H109.01V112.466H113.815V115.17H109.01V120H105.653ZM115.629 120V110.727H118.962V120H115.629ZM117.296 109.761C116.845 109.761 116.458 109.612 116.136 109.315C115.814 109.017 115.653 108.659 115.653 108.24C115.653 107.821 115.814 107.463 116.136 107.165C116.458 106.868 116.845 106.719 117.296 106.719C117.75 106.719 118.137 106.868 118.455 107.165C118.777 107.463 118.938 107.821 118.938 108.24C118.938 108.659 118.777 109.017 118.455 109.315C118.137 109.612 117.75 109.761 117.296 109.761ZM126.189 110.727V113.142H120.08V110.727H126.189ZM121.263 108.506H124.596V117.018C124.596 117.147 124.618 117.255 124.662 117.344C124.706 117.428 124.775 117.493 124.867 117.537C124.96 117.577 125.079 117.597 125.224 117.597C125.324 117.597 125.441 117.585 125.574 117.561C125.711 117.537 125.811 117.517 125.876 117.501L126.358 119.843C126.21 119.887 125.996 119.942 125.719 120.006C125.445 120.07 125.119 120.113 124.741 120.133C123.976 120.173 123.334 120.095 122.815 119.897C122.296 119.696 121.905 119.38 121.644 118.95C121.382 118.519 121.255 117.98 121.263 117.332V108.506Z" fill="#8EACCD"/>
<defs>
<filter id="filter0_d_202_902" x="38.9468" y="2.59644" width="60.5532" height="98.9036" filterUnits="userSpaceOnUse" color-interpolation-filters="sRGB">
<feFlood flood-opacity="0" result="BackgroundImageFix"/>
<feColorMatrix in="SourceAlpha" type="matrix" values="0 0 0 0 0 0 0 0 0 0 0 0 0 0 0 0 0 0 127 0" result="hardAlpha"/>
<feOffset dy="2"/>
<feGaussianBlur stdDeviation="2"/>
<feComposite in2="hardAlpha" operator="out"/>
<feColorMatrix type="matrix" values="0 0 0 0 0 0 0 0 0 0 0 0 0 0 0 0 0 0 0.25 0"/>
<feBlend mode="normal" in2="BackgroundImageFix" result="effect1_dropShadow_202_902"/>
<feBlend mode="normal" in="SourceGraphic" in2="effect1_dropShadow_202_902" result="shape"/>
</filter>
</defs>
</svg>
