<svg width="134" height="167" viewBox="0 0 134 167" fill="none" xmlns="http://www.w3.org/2000/svg">
<path d="M1 164.89V36.6016L30.4634 1L77.1138 47.6504L48.878 82.0244L35.374 69.748V118.854H47.0366L1 164.89Z" fill="#8EACCD" stroke="#8EACCD" stroke-linecap="round"/>
<g filter="url(#filter0_d_202_897)">
<path d="M116.398 7.13818L53.7886 83.8658H83.252V116.398H116.398V7.13818Z" fill="#8EACCD"/>
<path d="M116.398 7.13818L53.7886 83.8658H83.252V116.398H116.398V7.13818Z" stroke="#8EACCD" stroke-linecap="round"/>
</g>
<path d="M54.7969 127.636H58.9744L61.848 134.639H61.9929L64.8665 127.636H69.044V140H65.7599V132.852H65.6634L62.9105 139.903H60.9304L58.1776 132.804H58.081V140H54.7969V127.636ZM75.1504 140.169C74.1442 140.169 73.283 139.97 72.5666 139.571C71.8502 139.169 71.3008 138.609 70.9185 137.893C70.5362 137.173 70.345 136.338 70.345 135.388C70.345 134.438 70.5362 133.605 70.9185 132.888C71.3008 132.168 71.8502 131.609 72.5666 131.21C73.283 130.808 74.1442 130.607 75.1504 130.607C76.1565 130.607 77.0178 130.808 77.7342 131.21C78.4506 131.609 78.9999 132.168 79.3823 132.888C79.7646 133.605 79.9558 134.438 79.9558 135.388C79.9558 136.338 79.7646 137.173 79.3823 137.893C78.9999 138.609 78.4506 139.169 77.7342 139.571C77.0178 139.97 76.1565 140.169 75.1504 140.169ZM75.1745 137.706C75.4563 137.706 75.6998 137.611 75.905 137.422C76.1103 137.233 76.2692 136.963 76.3819 136.613C76.4946 136.263 76.551 135.847 76.551 135.364C76.551 134.877 76.4946 134.46 76.3819 134.114C76.2692 133.764 76.1103 133.494 75.905 133.305C75.6998 133.116 75.4563 133.021 75.1745 133.021C74.8767 133.021 74.6212 133.116 74.4078 133.305C74.1945 133.494 74.0315 133.764 73.9189 134.114C73.8062 134.46 73.7498 134.877 73.7498 135.364C73.7498 135.847 73.8062 136.263 73.9189 136.613C74.0315 136.963 74.1945 137.233 74.4078 137.422C74.6212 137.611 74.8767 137.706 75.1745 137.706ZM84.6404 134.784V140H81.3081V130.727H84.4714V132.49H84.568C84.7692 131.902 85.1234 131.442 85.6305 131.108C86.1416 130.774 86.7373 130.607 87.4174 130.607C88.0734 130.607 88.6429 130.757 89.1259 131.059C89.6129 131.357 89.9892 131.768 90.2548 132.291C90.5244 132.814 90.6573 133.412 90.6532 134.084V140H87.3208V134.784C87.3249 134.325 87.2082 133.965 86.9707 133.703C86.7373 133.442 86.4113 133.311 85.9927 133.311C85.719 133.311 85.4796 133.371 85.2743 133.492C85.0731 133.609 84.9181 133.778 84.8095 133.999C84.7008 134.217 84.6445 134.478 84.6404 134.784ZM96.7415 140.169C95.7514 140.169 94.8982 139.98 94.1818 139.602C93.4695 139.219 92.9201 138.672 92.5337 137.96C92.1514 137.243 91.9602 136.386 91.9602 135.388C91.9602 134.43 92.1534 133.593 92.5398 132.876C92.9261 132.16 93.4715 131.603 94.1758 131.204C94.8801 130.806 95.7112 130.607 96.669 130.607C97.3693 130.607 98.0032 130.715 98.5707 130.933C99.1381 131.15 99.6231 131.466 100.026 131.88C100.428 132.291 100.738 132.79 100.955 133.377C101.173 133.965 101.281 134.627 101.281 135.364V136.136H92.9986V134.301H98.2145C98.2105 134.036 98.142 133.802 98.0092 133.601C97.8804 133.396 97.7054 133.237 97.484 133.124C97.2667 133.007 97.0192 132.949 96.7415 132.949C96.4718 132.949 96.2243 133.007 95.9989 133.124C95.7736 133.237 95.5924 133.394 95.4556 133.595C95.3228 133.796 95.2524 134.031 95.2443 134.301V136.281C95.2443 136.579 95.3067 136.845 95.4315 137.078C95.5562 137.312 95.7353 137.495 95.9688 137.627C96.2022 137.76 96.4839 137.827 96.8139 137.827C97.0433 137.827 97.2526 137.795 97.4418 137.73C97.6349 137.666 97.8 137.573 97.9368 137.452C98.0736 137.328 98.1742 137.179 98.2386 137.006H101.281C101.177 137.65 100.929 138.209 100.539 138.684C100.148 139.155 99.6312 139.521 98.9872 139.783C98.3473 140.04 97.5987 140.169 96.7415 140.169ZM104.437 143.477C104.055 143.477 103.69 143.447 103.344 143.387C102.998 143.33 102.694 143.252 102.433 143.151L103.157 140.785C103.431 140.881 103.68 140.944 103.906 140.972C104.135 141 104.33 140.984 104.491 140.924C104.656 140.863 104.775 140.749 104.848 140.58L104.92 140.411L101.66 130.727H105.137L106.634 137.151H106.731L108.252 130.727H111.754L108.373 140.773C108.204 141.284 107.959 141.743 107.637 142.149C107.319 142.56 106.9 142.884 106.381 143.121C105.862 143.359 105.214 143.477 104.437 143.477ZM112.653 140V127.636H121.347V130.341H116.01V132.466H120.815V135.17H116.01V140H112.653ZM122.629 140V130.727H125.962V140H122.629ZM124.296 129.761C123.845 129.761 123.458 129.612 123.136 129.315C122.814 129.017 122.653 128.659 122.653 128.24C122.653 127.821 122.814 127.463 123.136 127.165C123.458 126.868 123.845 126.719 124.296 126.719C124.75 126.719 125.137 126.868 125.455 127.165C125.777 127.463 125.938 127.821 125.938 128.24C125.938 128.659 125.777 129.017 125.455 129.315C125.137 129.612 124.75 129.761 124.296 129.761ZM133.189 130.727V133.142H127.08V130.727H133.189ZM128.263 128.506H131.596V137.018C131.596 137.147 131.618 137.255 131.662 137.344C131.706 137.428 131.775 137.493 131.867 137.537C131.96 137.577 132.079 137.597 132.224 137.597C132.324 137.597 132.441 137.585 132.574 137.561C132.711 137.537 132.811 137.517 132.876 137.501L133.358 139.843C133.21 139.887 132.996 139.942 132.719 140.006C132.445 140.07 132.119 140.113 131.741 140.133C130.976 140.173 130.334 140.095 129.815 139.897C129.296 139.696 128.905 139.38 128.644 138.95C128.382 138.519 128.255 137.98 128.263 137.332V128.506Z" fill="#8EACCD"/>
<defs>
<filter id="filter0_d_202_897" x="48.7354" y="3.73462" width="72.1631" height="119.164" filterUnits="userSpaceOnUse" color-interpolation-filters="sRGB">
<feFlood flood-opacity="0" result="BackgroundImageFix"/>
<feColorMatrix in="SourceAlpha" type="matrix" values="0 0 0 0 0 0 0 0 0 0 0 0 0 0 0 0 0 0 127 0" result="hardAlpha"/>
<feOffset dy="2"/>
<feGaussianBlur stdDeviation="2"/>
<feComposite in2="hardAlpha" operator="out"/>
<feColorMatrix type="matrix" values="0 0 0 0 0 0 0 0 0 0 0 0 0 0 0 0 0 0 0.25 0"/>
<feBlend mode="normal" in2="BackgroundImageFix" result="effect1_dropShadow_202_897"/>
<feBlend mode="normal" in="SourceGraphic" in2="effect1_dropShadow_202_897" result="shape"/>
</filter>
</defs>
</svg>
